<svg viewBox="0 0 21 21" fill="none" xmlns="http://www.w3.org/2000/svg"><path d="M4.107 9.406v4.208c0 1.541 0 1.541 1.456 2.523l4.005 2.311c.601.348 1.583.348 2.184 0l4.005-2.31c1.456-.983 1.456-.983 1.456-2.524V9.406c0-1.54 0-1.54-1.456-2.523l-4.005-2.311c-.6-.347-1.583-.347-2.184 0L5.563 6.883c-1.456.982-1.456.982-1.456 2.523Z" stroke="currentColor" stroke-width=".952" stroke-linecap="round" stroke-linejoin="round"/><path d="M15.317 6.536V4.31c0-1.693-.847-2.54-2.54-2.54H8.543c-1.693 0-2.54.847-2.54 2.54v2.168m5.19 2.903.483.753a.737.737 0 0 0 .372.271l.864.22c.533.136.677.593.33 1.017l-.567.685a.76.76 0 0 0-.144.44l.05.89c.035.55-.355.83-.863.626l-.83-.33a.73.73 0 0 0-.465 0l-.83.33c-.508.203-.897-.085-.863-.626l.05-.89a.74.74 0 0 0-.144-.44l-.567-.685c-.347-.424-.203-.881.33-1.016l.864-.22a.715.715 0 0 0 .372-.272l.483-.753c.305-.457.779-.457 1.075 0Z" stroke="currentColor" stroke-width=".952" stroke-linecap="round" stroke-linejoin="round"/></svg>