<svg width="32" height="32" viewBox="0 0 32 32" fill="none" xmlns="http://www.w3.org/2000/svg">
  <path
    d="M24.6663 16.8667V21.8C24.6663 25.96 20.7863 29.3334 15.9997 29.3334C11.213 29.3334 7.33301 25.96 7.33301 21.8V16.8667C7.33301 21.0267 11.213 24 15.9997 24C20.7863 24 24.6663 21.0267 24.6663 16.8667Z"
    stroke="#292D32" stroke-width="1.5" stroke-linecap="round" stroke-linejoin="round"/>
  <path
    d="M24.6663 10.2001C24.6663 11.4134 24.333 12.5334 23.7463 13.4934C22.3197 15.8401 19.3863 17.3334 15.9997 17.3334C12.613 17.3334 9.67968 15.8401 8.25301 13.4934C7.66634 12.5334 7.33301 11.4134 7.33301 10.2001C7.33301 8.12008 8.30633 6.24008 9.86633 4.88008C11.4397 3.50675 13.5997 2.66675 15.9997 2.66675C18.3997 2.66675 20.5597 3.50675 22.133 4.86675C23.693 6.24008 24.6663 8.12008 24.6663 10.2001Z"
    stroke="#292D32" stroke-width="1.5" stroke-linecap="round" stroke-linejoin="round"/>
  <path
    d="M24.6663 10.2001V16.8668C24.6663 21.0268 20.7863 24.0001 15.9997 24.0001C11.213 24.0001 7.33301 21.0268 7.33301 16.8668V10.2001C7.33301 6.04008 11.213 2.66675 15.9997 2.66675C18.3997 2.66675 20.5597 3.50675 22.133 4.86675C23.693 6.24008 24.6663 8.12008 24.6663 10.2001Z"
    stroke="#292D32" stroke-width="1.5" stroke-linecap="round" stroke-linejoin="round"/>
</svg>
