<svg viewBox="0 0 17 17" fill="none" xmlns="http://www.w3.org/2000/svg"><path d="M11.127 9.072v2.667c0 2.222-.89 3.111-3.112 3.111H5.348c-2.222 0-3.111-.889-3.111-3.111V9.072c0-2.223.889-3.112 3.111-3.112h2.667c2.223 0 3.112.89 3.112 3.112Z" stroke="currentColor" stroke-width=".952" stroke-linecap="round" stroke-linejoin="round"/><path d="M14.937 5.262v2.667c0 2.222-.89 3.111-3.112 3.111h-.698V9.072c0-2.223-.89-3.112-3.112-3.112H6.047v-.698c0-2.223.889-3.112 3.111-3.112h2.667c2.223 0 3.112.89 3.112 3.112Z" stroke="currentColor" stroke-width=".952" stroke-linecap="round" stroke-linejoin="round"/></svg>