<svg viewBox="0 0 19 18" fill="none" xmlns="http://www.w3.org/2000/svg"><path d="M13.402 5.882a5.294 5.294 0 0 1 0 7.484 5.294 5.294 0 0 1-7.484 0 5.294 5.294 0 0 1 0-7.484 5.294 5.294 0 0 1 7.484 0ZM6.485 17.473a8.373 8.373 0 0 1-4.157-3.607A8.374 8.374 0 0 1 1.27 8.575m3.183-5.631A8.412 8.412 0 0 1 9.66 1.15c1.922 0 3.691.652 5.114 1.736m-1.939 14.587a8.373 8.373 0 0 0 4.157-3.607 8.374 8.374 0 0 0 1.058-5.291" stroke="currentColor" stroke-width=".952" stroke-linecap="round" stroke-linejoin="round"/></svg>