<svg viewBox="0 0 32 32" fill="none" xmlns="http://www.w3.org/2000/svg"><path d="M29.333 11.027V5.64c0-2.12-.853-2.973-2.973-2.973h-5.387C18.853 2.667 18 3.52 18 5.64v5.387c0 2.12.853 2.973 2.973 2.973h5.387c2.12 0 2.973-.853 2.973-2.973ZM14 11.36V5.307c0-1.88-.854-2.64-2.973-2.64H5.64c-2.12 0-2.973.76-2.973 2.64v6.04c0 1.893.853 2.64 2.973 2.64h5.387C13.146 14 14 13.24 14 11.36Zm0 15v-5.387c0-2.12-.854-2.973-2.973-2.973H5.64c-2.12 0-2.973.853-2.973 2.973v5.387c0 2.12.853 2.973 2.973 2.973h5.387c2.12 0 2.973-.853 2.973-2.973Z" stroke="currentColor" stroke-width="1.5" stroke-linecap="round" stroke-linejoin="round"/><path d="M20 20.667h8M20 26h8" stroke="currentColor" stroke-width="1.5" stroke-linecap="round"/></svg>