<svg width="32" height="32" viewBox="0 0 32 32" fill="none" xmlns="http://www.w3.org/2000/svg">
  <path
    d="M22.667 24.5734H17.3337L11.4003 28.52C10.5203 29.1067 9.33366 28.4801 9.33366 27.4134V24.5734C5.33366 24.5734 2.66699 21.9067 2.66699 17.9067V9.90666C2.66699 5.90666 5.33366 3.23999 9.33366 3.23999H22.667C26.667 3.23999 29.3337 5.90666 29.3337 9.90666V17.9067C29.3337 21.9067 26.667 24.5734 22.667 24.5734Z"
    stroke="#292D32" stroke-width="1.5" stroke-miterlimit="10" stroke-linecap="round" stroke-linejoin="round"/>
  <path
    d="M16.0004 15.1467V14.8668C16.0004 13.9601 16.5604 13.4801 17.1204 13.0934C17.6671 12.7201 18.2137 12.2401 18.2137 11.3601C18.2137 10.1334 17.2271 9.14673 16.0004 9.14673C14.7737 9.14673 13.7871 10.1334 13.7871 11.3601"
    stroke="#292D32" stroke-width="1.5" stroke-linecap="round" stroke-linejoin="round"/>
  <path d="M15.9937 18.3334H16.0057" stroke="#292D32" stroke-width="1.5" stroke-linecap="round"
        stroke-linejoin="round"/>
</svg>
