<svg viewBox="0 0 21 21" fill="none" xmlns="http://www.w3.org/2000/svg"><path d="M8.12 18.627h5.08c4.233 0 5.926-1.693 5.926-5.927V7.62c0-4.233-1.693-5.926-5.926-5.926H8.12c-4.233 0-5.927 1.693-5.927 5.926v5.08c0 4.234 1.694 5.927 5.927 5.927Z" stroke="currentColor" stroke-width=".952" stroke-linecap="round" stroke-linejoin="round"/><path d="M13.683 15.664v-3.302m0-6.054v-1.65m-.001 6.052a2.201 2.201 0 1 0 0-4.402 2.201 2.201 0 0 0 0 4.403Zm-6.045 4.954v-1.651m0-6.053V4.656m0 9.356a2.201 2.201 0 1 0 0-4.402 2.201 2.201 0 0 0 0 4.402Z" stroke="currentColor" stroke-width=".952" stroke-miterlimit="10" stroke-linecap="round" stroke-linejoin="round"/></svg>