<svg viewBox="0 0 21 21" fill="none" xmlns="http://www.w3.org/2000/svg"><path d="M14.86 5.45a7.306 7.306 0 0 1 3.098 5.208M3.455 10.7a7.282 7.282 0 0 1 3.048-5.207m.931 12.463c.982.5 2.1.779 3.277.779a7.176 7.176 0 0 0 3.158-.72M10.71 6.746a2.354 2.354 0 1 0 0-4.707 2.354 2.354 0 0 0 0 4.707ZM4.59 17.092a2.354 2.354 0 1 0 0-4.707 2.354 2.354 0 0 0 0 4.707Zm12.14 0a2.354 2.354 0 1 0 0-4.707 2.354 2.354 0 0 0 0 4.707Z" stroke="currentColor" stroke-width=".952" stroke-linecap="round" stroke-linejoin="round"/></svg>