<svg xmlns="http://www.w3.org/2000/svg" viewBox="0 0 589 691" xml:space="preserve"><path class="st0" d="M479.9 312.3 245.5 77.5 191 131.7l79.7 79.8L95.8 385.9 331 621.5l53.8-53.6-80.4-80.6 175.5-175zM255.7 427.7c-1.6.5-3.2.5-4.8 0s-2.9-1.2-5.7-4.1l-31.7-31.8c-2.8-2.8-3.6-4.2-4-5.8-.5-1.6-.5-3.2 0-4.8.5-1.6 1.2-2.9 4.1-5.7l99.9-99.7c2.8-2.8 4.2-3.6 5.8-4 1.6-.5 3.2-.5 4.8 0 1.6.5 2.9 1.2 5.7 4.1l31.7 31.8c2.8 2.8 3.6 4.2 4 5.8.5 1.6.5 3.2 0 4.8-.5 1.6-1.2 2.9-4.1 5.7l-99.9 99.7c-2.9 2.8-4.3 3.6-5.8 4zm169.9-324.4c0-7 2.4-13 7.4-18s11-7.5 17.9-7.5c7 0 13 2.5 18 7.5s7.5 11 7.5 18c0 7.1-2.5 13-7.5 17.9-5 5-11 7.4-18 7.4s-13-2.4-17.9-7.4c-5-4.9-7.4-10.8-7.4-17.9zm4.2 0c0 5.9 2 11 6.1 15.1s9.1 6.2 15.1 6.2c5.9 0 10.9-2.1 15-6.2 4.1-4.2 6.2-9.2 6.2-15.1s-2.1-11-6.2-15.1c-4.1-4.2-9.1-6.3-15-6.3s-10.9 2.1-15 6.3c-4.1 4.1-6.2 9.1-6.2 15.1zm27.2 13.9-6.8-12.1h-4.6v12.1h-4.2V89.4h11.3c5.6 0 8.9 3.3 8.9 7.9 0 3.9-2.9 6.8-6.8 7.6l6.9 12.3H457zm-11.4-24.1v8.4h6.5c3.6 0 5.4-1.4 5.4-4.2 0-2.9-1.8-4.3-5.4-4.3l-6.5.1z"/></svg>